<svg width="114" height="38" viewBox="0 0 114 38" fill="none" xmlns="http://www.w3.org/2000/svg">
<rect width="114" height="38" rx="6" fill="#EBE5F9"/>
<path d="M19 9.375C16.995 9.37727 15.0728 10.1748 13.655 11.5925C12.2373 13.0103 11.4398 14.9325 11.4375 16.9375C11.4375 23.4086 18.3125 28.2984 18.6047 28.5047C18.7218 28.5827 18.8593 28.6243 19 28.6243C19.1407 28.6243 19.2782 28.5827 19.3953 28.5047C19.6875 28.2984 26.5625 23.4086 26.5625 16.9375C26.5602 14.9325 25.7627 13.0103 24.345 11.5925C22.9272 10.1748 21.005 9.37727 19 9.375V9.375ZM19 14.1875C19.5439 14.1875 20.0756 14.3488 20.5278 14.651C20.9801 14.9531 21.3325 15.3826 21.5407 15.8851C21.7488 16.3876 21.8033 16.9406 21.6972 17.474C21.5911 18.0074 21.3291 18.4974 20.9445 18.882C20.5599 19.2666 20.0699 19.5286 19.5365 19.6347C19.0031 19.7408 18.4501 19.6863 17.9476 19.4782C17.4451 19.27 17.0156 18.9176 16.7135 18.4653C16.4113 18.0131 16.25 17.4814 16.25 16.9375C16.25 16.2082 16.5397 15.5087 17.0555 14.993C17.5712 14.4772 18.2707 14.1875 19 14.1875V14.1875Z" fill="#8047F8"/>
<path d="M42.8184 18.709V19.3379C42.8184 20.0853 42.7249 20.7552 42.5381 21.3477C42.3512 21.9401 42.0824 22.4437 41.7314 22.8584C41.3805 23.2731 40.959 23.5898 40.4668 23.8086C39.9792 24.0273 39.4323 24.1367 38.8262 24.1367C38.2383 24.1367 37.6982 24.0273 37.2061 23.8086C36.7184 23.5898 36.2946 23.2731 35.9346 22.8584C35.5791 22.4437 35.3034 21.9401 35.1074 21.3477C34.9115 20.7552 34.8135 20.0853 34.8135 19.3379V18.709C34.8135 17.9616 34.9092 17.2939 35.1006 16.7061C35.2965 16.1136 35.5723 15.61 35.9277 15.1953C36.2832 14.776 36.7048 14.457 37.1924 14.2383C37.6846 14.0195 38.2246 13.9102 38.8125 13.9102C39.4186 13.9102 39.9655 14.0195 40.4531 14.2383C40.9453 14.457 41.3669 14.776 41.7178 15.1953C42.0732 15.61 42.3444 16.1136 42.5312 16.7061C42.7227 17.2939 42.8184 17.9616 42.8184 18.709ZM41.5127 19.3379V18.6953C41.5127 18.1029 41.4512 17.5788 41.3281 17.123C41.2096 16.6673 41.0342 16.2845 40.8018 15.9746C40.5693 15.6647 40.2845 15.43 39.9473 15.2705C39.6146 15.111 39.2363 15.0312 38.8125 15.0312C38.4023 15.0312 38.0309 15.111 37.6982 15.2705C37.3701 15.43 37.0876 15.6647 36.8506 15.9746C36.6182 16.2845 36.4382 16.6673 36.3105 17.123C36.1829 17.5788 36.1191 18.1029 36.1191 18.6953V19.3379C36.1191 19.9349 36.1829 20.4635 36.3105 20.9238C36.4382 21.3796 36.6204 21.7646 36.8574 22.0791C37.099 22.389 37.3838 22.6237 37.7119 22.7832C38.0446 22.9427 38.416 23.0225 38.8262 23.0225C39.2546 23.0225 39.6351 22.9427 39.9678 22.7832C40.3005 22.6237 40.5807 22.389 40.8086 22.0791C41.041 21.7646 41.2165 21.3796 41.335 20.9238C41.4535 20.4635 41.5127 19.9349 41.5127 19.3379ZM49.1279 22.291V16.6035H50.3994V24H49.1895L49.1279 22.291ZM49.3672 20.7324L49.8936 20.7188C49.8936 21.2109 49.8411 21.6667 49.7363 22.0859C49.6361 22.5007 49.472 22.8607 49.2441 23.166C49.0163 23.4714 48.7178 23.7106 48.3486 23.8838C47.9795 24.0524 47.5306 24.1367 47.002 24.1367C46.6419 24.1367 46.3115 24.0843 46.0107 23.9795C45.7145 23.8747 45.4593 23.7129 45.2451 23.4941C45.0309 23.2754 44.8646 22.9906 44.7461 22.6396C44.6322 22.2887 44.5752 21.8672 44.5752 21.375V16.6035H45.8398V21.3887C45.8398 21.7214 45.8763 21.9971 45.9492 22.2158C46.0267 22.43 46.1292 22.6009 46.2568 22.7285C46.389 22.8516 46.5348 22.9382 46.6943 22.9883C46.8584 23.0384 47.027 23.0635 47.2002 23.0635C47.738 23.0635 48.1641 22.9609 48.4785 22.7559C48.793 22.5462 49.0186 22.266 49.1553 21.915C49.2965 21.5596 49.3672 21.1654 49.3672 20.7324ZM53.5918 17.7656V24H52.3271V16.6035H53.5576L53.5918 17.7656ZM55.9023 16.5625L55.8955 17.7383C55.7907 17.7155 55.6904 17.7018 55.5947 17.6973C55.5036 17.6882 55.3988 17.6836 55.2803 17.6836C54.9886 17.6836 54.7311 17.7292 54.5078 17.8203C54.2845 17.9115 54.0954 18.0391 53.9404 18.2031C53.7855 18.3672 53.6624 18.5632 53.5713 18.791C53.4847 19.0143 53.4277 19.2604 53.4004 19.5293L53.0449 19.7344C53.0449 19.2878 53.0882 18.8685 53.1748 18.4766C53.266 18.0846 53.4049 17.7383 53.5918 17.4375C53.7786 17.1322 54.0156 16.8952 54.3027 16.7266C54.5944 16.5534 54.9408 16.4668 55.3418 16.4668C55.4329 16.4668 55.5378 16.4782 55.6562 16.501C55.7747 16.5192 55.8568 16.5397 55.9023 16.5625ZM58.4453 16.6035V24H57.1738V16.6035H58.4453ZM57.0781 14.6416C57.0781 14.4365 57.1396 14.2633 57.2627 14.1221C57.3903 13.9808 57.5771 13.9102 57.8232 13.9102C58.0648 13.9102 58.2493 13.9808 58.377 14.1221C58.5091 14.2633 58.5752 14.4365 58.5752 14.6416C58.5752 14.8376 58.5091 15.0062 58.377 15.1475C58.2493 15.2842 58.0648 15.3525 57.8232 15.3525C57.5771 15.3525 57.3903 15.2842 57.2627 15.1475C57.1396 15.0062 57.0781 14.8376 57.0781 14.6416ZM63.4355 23.0977C63.7363 23.0977 64.0143 23.0361 64.2695 22.9131C64.5247 22.79 64.7344 22.6214 64.8984 22.4072C65.0625 22.1885 65.1559 21.9401 65.1787 21.6621H66.3818C66.359 22.0996 66.2109 22.5075 65.9375 22.8857C65.6686 23.2594 65.3154 23.5625 64.8779 23.7949C64.4404 24.0228 63.9596 24.1367 63.4355 24.1367C62.8796 24.1367 62.3942 24.0387 61.9795 23.8428C61.5693 23.6468 61.2275 23.3779 60.9541 23.0361C60.6852 22.6943 60.4824 22.3024 60.3457 21.8604C60.2135 21.4137 60.1475 20.9421 60.1475 20.4453V20.1582C60.1475 19.6615 60.2135 19.1921 60.3457 18.75C60.4824 18.3034 60.6852 17.9092 60.9541 17.5674C61.2275 17.2256 61.5693 16.9567 61.9795 16.7607C62.3942 16.5648 62.8796 16.4668 63.4355 16.4668C64.0143 16.4668 64.5202 16.5853 64.9531 16.8223C65.3861 17.0547 65.7256 17.3737 65.9717 17.7793C66.2223 18.1803 66.359 18.6361 66.3818 19.1465H65.1787C65.1559 18.8411 65.0693 18.5654 64.9189 18.3193C64.7731 18.0732 64.5726 17.8773 64.3174 17.7314C64.0667 17.5811 63.7728 17.5059 63.4355 17.5059C63.0482 17.5059 62.7223 17.5833 62.458 17.7383C62.1982 17.8887 61.9909 18.0938 61.8359 18.3535C61.6855 18.6087 61.5762 18.8936 61.5078 19.208C61.444 19.5179 61.4121 19.8346 61.4121 20.1582V20.4453C61.4121 20.7689 61.444 21.0879 61.5078 21.4023C61.5716 21.7168 61.6787 22.0016 61.8291 22.2568C61.984 22.512 62.1914 22.7171 62.4512 22.8721C62.7155 23.0225 63.0436 23.0977 63.4355 23.0977ZM72.3291 22.291V16.6035H73.6006V24H72.3906L72.3291 22.291ZM72.5684 20.7324L73.0947 20.7188C73.0947 21.2109 73.0423 21.6667 72.9375 22.0859C72.8372 22.5007 72.6732 22.8607 72.4453 23.166C72.2174 23.4714 71.9189 23.7106 71.5498 23.8838C71.1807 24.0524 70.7318 24.1367 70.2031 24.1367C69.8431 24.1367 69.5127 24.0843 69.2119 23.9795C68.9157 23.8747 68.6605 23.7129 68.4463 23.4941C68.2321 23.2754 68.0658 22.9906 67.9473 22.6396C67.8333 22.2887 67.7764 21.8672 67.7764 21.375V16.6035H69.041V21.3887C69.041 21.7214 69.0775 21.9971 69.1504 22.2158C69.2279 22.43 69.3304 22.6009 69.458 22.7285C69.5902 22.8516 69.736 22.9382 69.8955 22.9883C70.0596 23.0384 70.2282 23.0635 70.4014 23.0635C70.9391 23.0635 71.3652 22.9609 71.6797 22.7559C71.9941 22.5462 72.2197 22.266 72.3564 21.915C72.4977 21.5596 72.5684 21.1654 72.5684 20.7324ZM76.793 17.7656V24H75.5283V16.6035H76.7588L76.793 17.7656ZM79.1035 16.5625L79.0967 17.7383C78.9919 17.7155 78.8916 17.7018 78.7959 17.6973C78.7048 17.6882 78.5999 17.6836 78.4814 17.6836C78.1898 17.6836 77.9323 17.7292 77.709 17.8203C77.4857 17.9115 77.2965 18.0391 77.1416 18.2031C76.9867 18.3672 76.8636 18.5632 76.7725 18.791C76.6859 19.0143 76.6289 19.2604 76.6016 19.5293L76.2461 19.7344C76.2461 19.2878 76.2894 18.8685 76.376 18.4766C76.4671 18.0846 76.6061 17.7383 76.793 17.4375C76.9798 17.1322 77.2168 16.8952 77.5039 16.7266C77.7956 16.5534 78.1419 16.4668 78.543 16.4668C78.6341 16.4668 78.7389 16.4782 78.8574 16.501C78.9759 16.5192 79.0579 16.5397 79.1035 16.5625ZM81.6465 16.6035V24H80.375V16.6035H81.6465ZM80.2793 14.6416C80.2793 14.4365 80.3408 14.2633 80.4639 14.1221C80.5915 13.9808 80.7783 13.9102 81.0244 13.9102C81.266 13.9102 81.4505 13.9808 81.5781 14.1221C81.7103 14.2633 81.7764 14.4365 81.7764 14.6416C81.7764 14.8376 81.7103 15.0062 81.5781 15.1475C81.4505 15.2842 81.266 15.3525 81.0244 15.3525C80.7783 15.3525 80.5915 15.2842 80.4639 15.1475C80.3408 15.0062 80.2793 14.8376 80.2793 14.6416ZM84.8252 22.4961V23.5146C84.8252 23.9294 84.7204 24.3669 84.5107 24.8271C84.3011 25.292 84.0072 25.6794 83.6289 25.9893L82.9111 25.4902C83.057 25.2897 83.18 25.0846 83.2803 24.875C83.3805 24.6699 83.4557 24.4557 83.5059 24.2324C83.5605 24.0137 83.5879 23.7812 83.5879 23.5352V22.4961H84.8252ZM93.7734 20.0967H91.1143V19.0234H93.7734C94.2884 19.0234 94.7054 18.9414 95.0244 18.7773C95.3434 18.6133 95.5758 18.3854 95.7217 18.0938C95.8721 17.8021 95.9473 17.4694 95.9473 17.0957C95.9473 16.7539 95.8721 16.4326 95.7217 16.1318C95.5758 15.8311 95.3434 15.5895 95.0244 15.4072C94.7054 15.2204 94.2884 15.127 93.7734 15.127H91.4219V24H90.1025V14.0469H93.7734C94.5254 14.0469 95.1611 14.1768 95.6807 14.4365C96.2002 14.6963 96.5944 15.0563 96.8633 15.5166C97.1322 15.9723 97.2666 16.4941 97.2666 17.082C97.2666 17.7201 97.1322 18.2646 96.8633 18.7158C96.5944 19.167 96.2002 19.5111 95.6807 19.748C95.1611 19.9805 94.5254 20.0967 93.7734 20.0967ZM105.258 22.9268V24H99.9873V22.9268H105.258ZM100.254 14.0469V24H98.9346V14.0469H100.254ZM104.561 18.3262V19.3994H99.9873V18.3262H104.561ZM105.189 14.0469V15.127H99.9873V14.0469H105.189Z" fill="#4B2995"/>
</svg>
